<?xml version="1.0" encoding="UTF-8"?>
<svg version="1.1" xmlns="http://www.w3.org/2000/svg" width="233" height="432">
<path d="M0 0 C0.66 0 1.32 0 2 0 C2.21503174 0.60658447 2.43006348 1.21316895 2.65161133 1.83813477 C7.30569881 14.86005417 12.39541515 27.46777492 18.54418945 39.86157227 C18.9949585 40.77092529 19.44572754 41.68027832 19.91015625 42.6171875 C20.31371338 43.41753418 20.71727051 44.21788086 21.13305664 45.04248047 C22 47 22 47 22 49 C21.154375 49.30292969 20.30875 49.60585937 19.4375 49.91796875 C2.08083656 56.32810013 -11.93668267 67.24455176 -19.9375 84.3515625 C-32.28583669 115.13160764 -18.21839853 149.33374451 -9.25878906 179.19995117 C-3.64541709 198.00946441 -0.6014066 217.04629719 -10.17578125 235.10546875 C-16.09013969 244.48992186 -26.04371468 252.48918461 -37 255 C-48.6251646 257.09334258 -59.21351101 254.78397717 -69 248 C-82.00401206 233.83065896 -82.73781125 209.79717748 -82.14355469 191.79296875 C-80.84861715 166.59894587 -69.82295543 143.56648933 -56.13037109 122.8984375 C-32.16228797 86.53780495 -11.33842457 42.28769572 0 0 Z " fill="#F47B35" transform="translate(110,26)"/>
<path d="M0 0 C3.47497274 1.15832425 3.7005357 1.69068309 5.4609375 4.734375 C6.1583606 5.92111816 6.1583606 5.92111816 6.86987305 7.13183594 C7.36656494 7.99583008 7.86325684 8.85982422 8.375 9.75 C9.45027399 11.58424223 10.52714996 13.4175461 11.60546875 15.25 C12.16282715 16.20003906 12.72018555 17.15007812 13.29443359 18.12890625 C16.01885528 22.71510709 18.8576148 27.22843987 21.6875 31.75 C28.94287198 43.43332217 35.84619727 55.13114974 41.625 67.625 C41.98053955 68.37160889 42.3360791 69.11821777 42.70239258 69.88745117 C44.6943896 74.34428532 45.51929084 77.16878226 44 82 C42.92066438 84.68221909 41.70801995 87.27861071 40.4375 89.875 C40.10814453 90.56335938 39.77878906 91.25171875 39.43945312 91.9609375 C38.63304639 93.6438733 37.81745506 95.32240293 37 97 C38.32 98.65 39.64 100.3 41 102 C44.5786304 100.34832443 47.74820188 98.21713508 51 96 C57.46350641 116.25232008 55.51349161 139.44330363 46.1875 158.375 C34.39256983 181.12957947 15.99566679 198.89211866 -8.48828125 207.03515625 C-28.23248858 212.45987172 -50.37926653 210.72037441 -69 202 C-69.33 201.34 -69.66 200.68 -70 200 C-69.0203125 200.15726563 -68.040625 200.31453125 -67.03125 200.4765625 C-49.41328457 202.9618277 -34.3668807 200.11956644 -19.9296875 189.37109375 C-5.25821238 177.49697989 3.75638027 162.63403612 7 144 C8.44931626 122.01837029 4.56882363 104.81355476 -3.11141968 84.48864746 C-10.59607254 64.66589318 -21.12770825 36.58271727 -13.5 15.3125 C-10.46113577 9.18031161 -5.67452467 3.78301645 0 0 Z " fill="#1E7AC5" transform="translate(147,105)"/>
<path d="M0 0 C3.3 0 6.6 0 10 0 C12.91373062 8.22646342 15.04030764 16.61067225 17.1875 25.0625 C18.445625 29.991875 19.70375 34.92125 21 40 C21.33 26.8 21.66 13.6 22 0 C24.97 0 27.94 0 31 0 C31 24.75 31 49.5 31 75 C27.7 75 24.4 75 21 75 C17.7 63.12 14.4 51.24 11 39 C10.67 50.88 10.34 62.76 10 75 C6.7 75 3.4 75 0 75 C0 50.25 0 25.5 0 0 Z " fill="#00AEEE" transform="translate(202,326)"/>
<path d="M0 0 C3.3 0 6.6 0 10 0 C13.3 12.87 16.6 25.74 20 39 C20.33 26.13 20.66 13.26 21 0 C24.3 0 27.6 0 31 0 C31 24.75 31 49.5 31 75 C27.7 75 24.4 75 21 75 C19.91616223 71.29181346 18.83292164 67.58345409 17.75 63.875 C17.44964844 62.84761719 17.14929688 61.82023437 16.83984375 60.76171875 C14.52998602 52.84922739 12.26455666 44.92594832 10 37 C9.67 49.54 9.34 62.08 9 75 C6.03 75 3.06 75 0 75 C0 50.25 0 25.5 0 0 Z " fill="#F48533" transform="translate(67,326)"/>
<path d="M0 0 C3.28636404 1.43778427 5.70241762 3.24290115 8 6 C8.94137255 8.82411765 9.11725382 10.52918032 9.09765625 13.44921875 C9.09443359 14.29677734 9.09121094 15.14433594 9.08789062 16.01757812 C9.07951172 16.89865234 9.07113281 17.77972656 9.0625 18.6875 C9.05798828 19.58017578 9.05347656 20.47285156 9.04882812 21.39257812 C9.03705004 23.59508073 9.01911481 25.79754885 9 28 C6.03 28 3.06 28 0 28 C-0.06058594 26.95199219 -0.12117188 25.90398437 -0.18359375 24.82421875 C-0.26801738 23.44529952 -0.35266447 22.06639395 -0.4375 20.6875 C-0.47681641 19.99720703 -0.51613281 19.30691406 -0.55664062 18.59570312 C-0.74927415 15.52838465 -1.02322717 12.93031848 -2 10 C-3.86196946 9.07606836 -3.86196946 9.07606836 -6 9 C-6.99 9.66 -7.98 10.32 -9 11 C-9.44716639 12.99361474 -9.44716639 12.99361474 -9.36328125 15.28125 C-9.36231445 16.54388672 -9.36231445 16.54388672 -9.36132812 17.83203125 C-9.34521484 18.71246094 -9.32910156 19.59289062 -9.3125 20.5 C-9.31572266 21.38042969 -9.31894531 22.26085937 -9.32226562 23.16796875 C-9.55849396 28.10248946 -9.55849396 28.10248946 -7 32 C-4.6754661 32.37051993 -4.6754661 32.37051993 -1.9921875 32.4140625 C-1.00605469 32.45273437 -0.01992187 32.49140625 0.99609375 32.53125 C2.02863281 32.5621875 3.06117187 32.593125 4.125 32.625 C5.16527344 32.66367187 6.20554687 32.70234375 7.27734375 32.7421875 C9.85138311 32.83664766 12.42541155 32.92221214 15 33 C15 35.97 15 38.94 15 42 C13.02 42 11.04 42 9 42 C9.33 50.25 9.66 58.5 10 67 C11.65 67.33 13.3 67.66 15 68 C15 70.64 15 73.28 15 76 C11.6820713 76.15432227 9.43278711 76.19578464 6.375 74.8125 C5.59125 74.544375 4.8075 74.27625 4 74 C3.401875 74.46921875 2.80375 74.9384375 2.1875 75.421875 C-1.75149498 78.26357852 -6.34535117 77.60712811 -11 77 C-15.58469479 74.78952216 -17.73245363 72.49026679 -20 68 C-20.60288748 63.87085823 -20.46380846 59.73119485 -20.4375 55.5625 C-20.45748047 54.44294922 -20.47746094 53.32339844 -20.49804688 52.16992188 C-20.49428599 45.83283311 -20.2860755 41.81228675 -16 37 C-16.474375 36.401875 -16.94875 35.80375 -17.4375 35.1875 C-20.6701047 30.66185342 -20.21764929 26.07978022 -20.25 20.75 C-20.270625 19.91597656 -20.29125 19.08195312 -20.3125 18.22265625 C-20.34720918 12.69521924 -19.63381286 8.88509576 -17 4 C-12.02056368 -0.85495041 -6.5870854 -0.84475599 0 0 Z M-9.73681641 43.24243164 C-11.30262076 45.42106046 -11.38648427 46.64216989 -11.3984375 49.30859375 C-11.40230469 50.13810547 -11.40617187 50.96761719 -11.41015625 51.82226562 C-11.39855469 52.68529297 -11.38695313 53.54832031 -11.375 54.4375 C-11.38660156 55.29666016 -11.39820312 56.15582031 -11.41015625 57.04101562 C-11.39313543 60.69765521 -11.3679914 63.28991689 -9.66796875 66.5703125 C-7.97098915 68.28376706 -7.97098915 68.28376706 -4.9375 68.4375 C-3.968125 68.293125 -2.99875 68.14875 -2 68 C0.23413013 64.64880481 0.23847762 63.5822245 0.1953125 59.67578125 C0.18886719 58.64775391 0.18242188 57.61972656 0.17578125 56.56054688 C0.15902344 55.48869141 0.14226562 54.41683594 0.125 53.3125 C0.11597656 52.22904297 0.10695313 51.14558594 0.09765625 50.02929688 C0.0740734 47.3526429 0.04116126 44.67643203 0 42 C-1.8871875 41.9071875 -1.8871875 41.9071875 -3.8125 41.8125 C-4.52019531 41.77769531 -5.22789063 41.74289062 -5.95703125 41.70703125 C-8.07253954 41.85039148 -8.07253954 41.85039148 -9.73681641 43.24243164 Z " fill="#363334" transform="translate(119,325)"/>
<path d="M0 0 C3.3 0 6.6 0 10 0 C10.33 21.78 10.66 43.56 11 66 C13.64 66 16.28 66 19 66 C21.33568099 62.49647851 21.26917577 61.02382361 21.31884766 56.8762207 C21.33871735 55.61513992 21.35858704 54.35405914 21.37905884 53.05476379 C21.39093522 51.67843806 21.40259808 50.30211047 21.4140625 48.92578125 C21.43277289 47.51758181 21.45234621 46.1093936 21.4727478 44.70121765 C21.52408893 40.99741227 21.56370385 37.29357054 21.60089111 33.58959961 C21.64091847 29.8089904 21.69201656 26.02853268 21.7421875 22.24804688 C21.83897017 14.83213516 21.92336726 7.4161502 22 0 C25.3 0 28.6 0 32 0 C32.04645584 8.09327013 32.08193625 16.18648402 32.10362434 24.27985477 C32.11403649 28.0384246 32.12814842 31.79690281 32.15087891 35.55541992 C32.17269938 39.18642 32.18458793 42.81733226 32.18975449 46.44839287 C32.19343379 47.82979145 32.20061838 49.21118553 32.21146011 50.59254646 C32.33503179 66.99781626 32.33503179 66.99781626 27.8125 72.8125 C23.27082621 76.34491295 19.09593065 77.2553987 13.4375 76.875 C9.13626663 76.23750885 6.30980455 74.9157802 3 72 C0.34570725 67.59987141 -0.36993906 64.36939586 -0.34057617 59.26025391 C-0.34101425 58.61564209 -0.34145233 57.97103027 -0.34190369 57.30688477 C-0.33982956 55.19645885 -0.31656576 53.08684797 -0.29296875 50.9765625 C-0.28736785 49.50540602 -0.28310009 48.03424392 -0.28010559 46.56307983 C-0.26869557 42.70620048 -0.23926212 38.84966441 -0.20599365 34.99291992 C-0.1752094 31.05131676 -0.16158247 27.10965769 -0.14648438 23.16796875 C-0.11438818 15.44515664 -0.0632391 7.72262657 0 0 Z " fill="#00AFEE" transform="translate(168,326)"/>
<path d="M0 0 C3.3 0 6.6 0 10 0 C10.01213028 1.15178741 10.01213028 1.15178741 10.02450562 2.32684326 C10.10247291 9.56608989 10.18976986 16.80513558 10.28752708 24.04413986 C10.33745556 27.76571684 10.38378574 31.48726591 10.421875 35.20898438 C10.45877163 38.80120413 10.50514317 42.39318843 10.55806351 45.9852066 C10.57658426 47.35507321 10.59170081 48.72499024 10.60334396 50.09493256 C10.62024532 52.01488656 10.65041426 53.93470986 10.68115234 55.85449219 C10.69447601 56.94703308 10.70779968 58.03957397 10.7215271 59.16522217 C10.99536721 61.95283949 11.56055693 63.62670059 13 66 C15.64 66 18.28 66 21 66 C21.86864698 62.22964168 22.14929928 58.69834953 22.20532227 54.83276367 C22.22526749 53.61187546 22.24521271 52.39098724 22.26576233 51.13310242 C22.28247482 49.82460831 22.29918732 48.5161142 22.31640625 47.16796875 C22.3369958 45.80747372 22.35799278 44.44698481 22.37937927 43.08650208 C22.43439347 39.51751677 22.48389317 35.94847573 22.53222656 32.37939453 C22.58259306 28.73269734 22.6381998 25.08608041 22.69335938 21.43945312 C22.80068804 14.29303849 22.90218843 7.14655175 23 0 C25.97 0 28.94 0 32 0 C32.06961858 8.50167538 32.1228712 17.00323094 32.15543652 25.50512123 C32.17106904 29.45322387 32.1922628 33.40113097 32.22631836 37.34912109 C32.25899851 41.16167489 32.27687117 44.974041 32.28463173 48.78672409 C32.29015977 50.23874235 32.30095474 51.69075074 32.31719017 53.14268875 C32.33908046 55.18210005 32.34196223 57.22074336 32.34057617 59.26025391 C32.34723801 60.41941315 32.35389984 61.57857239 32.36076355 62.77285767 C31.80086042 67.78136558 30.1419633 70.99398471 26.375 74.3125 C20.90816894 77.04591553 16.243911 77.37398517 10.25 76.375 C5.4965971 74.36394493 2.83301486 72.05323877 0.87548828 67.22827148 C-0.72249981 61.15696349 -0.24418986 54.76268911 -0.1953125 48.53515625 C-0.19157708 47.1326874 -0.18873261 45.73021593 -0.18673706 44.32774353 C-0.17914221 40.65673473 -0.15952998 36.98588705 -0.1373291 33.31494141 C-0.11678072 29.56089456 -0.10771621 25.80682139 -0.09765625 22.05273438 C-0.07627965 14.70174989 -0.04219457 7.35089762 0 0 Z " fill="#F48533" transform="translate(32,326)"/>
<path d="M0 0 C5.13528847 2.30202586 6.94076855 4.85487156 9 10 C9.34059563 12.97253445 9.28621519 15.88823281 9.1875 18.875 C9.16719727 20.050625 9.16719727 20.050625 9.14648438 21.25 C9.11141789 23.16696782 9.05762072 25.08357751 9 27 C6.03 27 3.06 27 0 27 C-0.04898438 26.10796875 -0.09796875 25.2159375 -0.1484375 24.296875 C-0.22320312 23.12640625 -0.29796875 21.9559375 -0.375 20.75 C-0.44460937 19.58984375 -0.51421875 18.4296875 -0.5859375 17.234375 C-0.96506429 14.27289404 -1.33217754 12.44613961 -3 10 C-5.40882687 9.00156224 -5.40882687 9.00156224 -8 9 C-11.14166409 10.62829172 -11.14166409 10.62829172 -11.6171875 13.13671875 C-12.32642787 19.87014107 -12.32642787 19.87014107 -10.48046875 26.28515625 C-7.57883657 29.64614973 -3.62860358 31.74767164 0.10546875 34.08203125 C3.97373045 36.6452114 7.14819195 39.32026729 8.60058594 43.8894043 C9.34700946 47.83367776 9.22677937 51.80984357 9.25 55.8125 C9.270625 56.68970703 9.29125 57.56691406 9.3125 58.47070312 C9.34620994 64.10447739 8.723597 68.03571326 6 73 C1.81280639 76.70031063 -2.42514413 78.25294264 -8 78 C-12.69324393 77.12629891 -16.05554597 75.92084268 -19.5 72.5625 C-21.59394364 68.98534628 -22.12879403 66.00081165 -22.09765625 61.890625 C-22.09443359 61.13652344 -22.09121094 60.38242187 -22.08789062 59.60546875 C-22.07951172 58.82816406 -22.07113281 58.05085938 -22.0625 57.25 C-22.05798828 56.45722656 -22.05347656 55.66445313 -22.04882812 54.84765625 C-22.03708565 52.89840492 -22.01915146 50.94919262 -22 49 C-19.03 49 -16.06 49 -13 49 C-12.95101562 49.88042969 -12.90203125 50.76085937 -12.8515625 51.66796875 C-12.77679688 52.82941406 -12.70203125 53.99085938 -12.625 55.1875 C-12.55539063 56.33605469 -12.48578125 57.48460937 -12.4140625 58.66796875 C-12.02490426 61.79959117 -11.3190149 64.15285809 -10 67 C-7.36 67 -4.72 67 -2 67 C-1.89177208 63.93654856 -1.81258521 60.8769399 -1.75 57.8125 C-1.71648437 56.94818359 -1.68296875 56.08386719 -1.6484375 55.19335938 C-1.58624114 51.13504709 -1.61160834 48.67333321 -3.671875 45.1015625 C-6.1516679 42.86309173 -8.60262813 41.22212098 -11.5 39.5625 C-17.17823339 36.08742117 -19.87297342 33.38107974 -22 27 C-22.14880933 24.21554845 -22.23107 21.47257615 -22.25 18.6875 C-22.270625 17.94048828 -22.29125 17.19347656 -22.3125 16.42382812 C-22.3468964 11.52664016 -21.66850806 8.25812171 -19 4 C-13.68621926 -1.31378074 -7.04806529 -0.87876641 0 0 Z " fill="#00AFEF" transform="translate(157,325)"/>
<path d="M0 0 C1.11246094 -0.01675781 2.22492187 -0.03351563 3.37109375 -0.05078125 C8.05551606 0.48245164 10.41997018 2.28072562 13.859375 5.38671875 C16.32737665 9.62647388 15.99892662 13.31734435 15.8125 18.125 C15.79445313 19.00865234 15.77640625 19.89230469 15.7578125 20.80273438 C15.71088513 22.97312543 15.63914731 25.14295519 15.5625 27.3125 C12.5925 27.3125 9.6225 27.3125 6.5625 27.3125 C6.52511719 26.26449219 6.48773437 25.21648437 6.44921875 24.13671875 C6.38355485 22.75777695 6.31710765 21.37887229 6.25 20 C6.22744141 19.30970703 6.20488281 18.61941406 6.18164062 17.90820312 C6.0252386 14.96500129 5.88960771 12.79605052 4.21484375 10.3203125 C2.43904321 9.02148685 2.43904321 9.02148685 -0.5625 9.5 C-1.985625 9.9021875 -1.985625 9.9021875 -3.4375 10.3125 C-5.54458699 14.52667397 -4.9481593 19.73458955 -4.4375 24.3125 C-1.51776664 29.39848714 2.51708755 31.70040545 7.40625 34.796875 C10.98037317 37.309121 13.59845994 40.38441989 15.5625 44.3125 C15.8319968 48.244295 15.79412105 52.18501216 15.8125 56.125 C15.833125 57.21876953 15.85375 58.31253906 15.875 59.43945312 C15.88015625 60.49712891 15.8853125 61.55480469 15.890625 62.64453125 C15.90464355 64.09436401 15.90464355 64.09436401 15.91894531 65.57348633 C15.36140391 69.85777193 13.35322292 72.47526396 10.4375 75.5625 C5.94310779 78.29821699 1.50967869 78.94552077 -3.65625 77.8359375 C-7.75277608 76.4449529 -10.72257738 74.78760096 -13.4375 71.3125 C-14.37887255 68.48838235 -14.55475382 66.78331968 -14.53515625 63.86328125 C-14.53193359 63.01572266 -14.52871094 62.16816406 -14.52539062 61.29492188 C-14.51701172 60.41384766 -14.50863281 59.53277344 -14.5 58.625 C-14.49548828 57.73232422 -14.49097656 56.83964844 -14.48632812 55.91992188 C-14.47455004 53.71741927 -14.45661481 51.51495115 -14.4375 49.3125 C-11.4675 49.3125 -8.4975 49.3125 -5.4375 49.3125 C-5.36402344 50.88451172 -5.36402344 50.88451172 -5.2890625 52.48828125 C-5.21401857 53.86721354 -5.13847143 55.2461185 -5.0625 56.625 C-5.0315625 57.31529297 -5.000625 58.00558594 -4.96875 58.71679688 C-4.75625081 62.38240789 -4.51816139 64.19150792 -2.4375 67.3125 C0.5625 67.8125 0.5625 67.8125 3.5625 67.3125 C5.96922854 63.70240719 5.86045107 61.04274719 5.8125 56.875 C5.81765625 55.55628906 5.8228125 54.23757813 5.828125 52.87890625 C5.56368554 48.73600353 5.56368554 48.73600353 3.5625 45.3125 C0.8824142 43.30310428 0.8824142 43.30310428 -2.25 41.4375 C-7.55790897 38.026182 -11.57125623 35.04498753 -14.4375 29.3125 C-14.73055322 25.90257313 -14.71546715 22.4835547 -14.75 19.0625 C-14.77900391 18.12019531 -14.80800781 17.17789062 -14.83789062 16.20703125 C-14.89067063 10.41747046 -14.50805008 6.7893922 -10.4375 2.3125 C-7.16227992 -0.09025131 -3.98444875 0.0138189 0 0 Z " fill="#F48533" transform="translate(14.4375,324.6875)"/>
<path d="M0 0 C2.55713222 2.63234199 4.04218126 4.64431076 4.2421875 8.37109375 C3.69846702 13.43120206 2.92440903 16.50322458 -0.875 20.1875 C-4.79520441 22.14760221 -9.59111576 21.5403633 -13.875 21.1875 C-17.61530185 19.58451349 -18.60658465 18.59012302 -20.875 15.1875 C-22.11583728 10.5343602 -21.92030778 7.55702117 -19.875 3.1875 C-17.76973778 0.69442632 -16.01840099 -1.26051332 -13.0625 -2.6875 C-8.02539639 -2.97533449 -4.24637351 -2.67706156 0 0 Z M-13.8125 3.6875 C-16.15714023 6.11283514 -16.15714023 6.11283514 -16.5 9.6875 C-16.16264001 13.27433893 -16.16264001 13.27433893 -13.75 15.6875 C-10.95350006 17.43927508 -10.95350006 17.43927508 -7.75 17.125 C-4.83828056 16.17552627 -3.61607692 15.66166193 -1.875 13.1875 C-0.47153611 10.28032479 -0.889577 9.1410358 -1.875 6 C-3.67294702 2.88618037 -3.67294702 2.88618037 -7.25 2.0625 C-10.88599943 1.93152009 -10.88599943 1.93152009 -13.8125 3.6875 Z " fill="#F58532" transform="translate(36.875,410.8125)"/>
<path d="M0 0 C1.9375 1.25 1.9375 1.25 3 3 C2.73904456 5.67479327 2.1995243 7.60095141 1 10 C0.34 10 -0.32 10 -1 10 C0.32 11.32 1.64 12.64 3 14 C3 13.01 3 12.02 3 11 C4.32 11.33 5.64 11.66 7 12 C6.979375 12.9075 6.95875 13.815 6.9375 14.75 C6.9889755 17.42672588 7.2215017 19.46988052 8 22 C4.25 23.125 4.25 23.125 2 22 C1.34 22.33 0.68 22.66 0 23 C-1.64255791 23.12114921 -3.29052478 23.17540767 -4.9375 23.1875 C-5.81277344 23.20167969 -6.68804687 23.21585937 -7.58984375 23.23046875 C-10 23 -10 23 -13 21 C-13.875 18.6875 -13.875 18.6875 -14 16 C-12.5625 13.375 -12.5625 13.375 -11 11 C-11 10.01 -11 9.02 -11 8 C-10.54261954 1.48232848 -10.54261954 1.48232848 -8.3125 -0.5 C-5.21367554 -1.1700161 -3.04812543 -0.84309852 0 0 Z M-5 3 C-5.33 4.32 -5.66 5.64 -6 7 C-5.01 7 -4.02 7 -3 7 C-3 5.68 -3 4.36 -3 3 C-3.66 3 -4.32 3 -5 3 Z M-6 13 C-6.99 13.99 -7.98 14.98 -9 16 C-8.01 17.485 -8.01 17.485 -7 19 C-4.41619823 19.25030977 -4.41619823 19.25030977 -2 19 C-2 18.01 -2 17.02 -2 16 C-3.94009522 14.29467677 -3.94009522 14.29467677 -6 13 Z " fill="#F58433" transform="translate(113,409)"/>
<path d="M0 0 C0.99 0.66 1.98 1.32 3 2 C2.67 3.32 2.34 4.64 2 6 C-1 6 -1 6 -4.4375 5.4375 C-7.60870962 5.04805321 -9.06519035 5.1292323 -12 6 C-12.65149959 11.90756153 -12.65149959 11.90756153 -10.375 17.0625 C-7.45304074 18.21590497 -5.11398457 18.21231713 -2 18 C-2 15.69 -2 13.38 -2 11 C-0.35 11 1.3 11 3 11 C3.08090971 12.62418745 3.13914995 14.24951745 3.1875 15.875 C3.23970703 17.23238281 3.23970703 17.23238281 3.29296875 18.6171875 C3.19628906 19.40351563 3.09960938 20.18984375 3 21 C-1.66900373 24.11266915 -6.53347583 23.59836278 -12 23 C-15.29139311 21.22264772 -16.45881502 19.88557542 -18.375 16.75 C-19.52907294 11.67207907 -18.95975732 7.57674418 -16.25 3.125 C-11.27321576 -1.57529622 -6.42822137 -1.4926956 0 0 Z " fill="#F58332" transform="translate(156,409)"/>
<path d="M0 0 C1.65 0 3.3 0 5 0 C8.91141228 7.53348722 12.60292686 14.82175048 15 23 C13.02 23 11.04 23 9 23 C8.505 20.525 8.505 20.525 8 18 C4.37 18 0.74 18 -3 18 C-3.99 20.475 -3.99 20.475 -5 23 C-6.65 23 -8.3 23 -10 23 C-7.60292686 14.82175048 -3.91141228 7.53348722 0 0 Z M2 6 C-0.2013866 9.80427492 -0.2013866 9.80427492 -1 14 C1.31 14 3.62 14 6 14 C5.01 11.36 4.02 8.72 3 6 C2.67 6 2.34 6 2 6 Z " fill="#F48533" transform="translate(177,409)"/>
<path d="M0 0 C0.66 0.33 1.32 0.66 2 1 C1.67 2.65 1.34 4.3 1 6 C0.01 5.67 -0.98 5.34 -2 5 C-4.33299825 4.96045766 -6.66708189 4.95598268 -9 5 C-8.67 5.99 -8.34 6.98 -8 8 C-5.96722527 8.95117358 -5.96722527 8.95117358 -3.5625 9.5625 C0.80269058 10.80269058 0.80269058 10.80269058 3 13 C3.375 16.4375 3.375 16.4375 3 20 C0.80945662 22.2211091 -0.55278335 22.93883655 -3.65625 23.36328125 C-4.5946875 23.34652344 -5.533125 23.32976562 -6.5 23.3125 C-7.4384375 23.30863281 -8.376875 23.30476563 -9.34375 23.30078125 C-12.02087334 22.9976364 -13.69965635 22.36176004 -16 21 C-15.67 19.68 -15.34 18.36 -15 17 C-14.319375 17.165 -13.63875 17.33 -12.9375 17.5 C-9.5835178 18.07089059 -6.39610195 18.06659023 -3 18 C-3.33 17.01 -3.66 16.02 -4 15 C-6.03277473 14.04882642 -6.03277473 14.04882642 -8.4375 13.4375 C-12.80269058 12.19730942 -12.80269058 12.19730942 -15 10 C-15.375 6.5625 -15.375 6.5625 -15 3 C-10.42441814 -1.73336055 -5.97598417 -0.94856892 0 0 Z " fill="#F48533" transform="translate(214,409)"/>
<path d="M0 0 C0.66 0.66 1.32 1.32 2 2 C1.79791614 3.8381032 1.58145065 5.67551392 1.30175781 7.50341797 C0.69793352 12.49913574 0.85723324 17.53746881 0.875 22.5625 C0.87113281 23.66013672 0.86726563 24.75777344 0.86328125 25.88867188 C0.86990068 31.37949262 1.09556071 36.58760737 2 42 C2.03703237 44.33303944 2.04760913 46.66715242 2 49 C1.01 48.67 0.02 48.34 -1 48 C-1.33 45.36 -1.66 42.72 -2 40 C-2.66 40 -3.32 40 -4 40 C-4.95785488 34.34482479 -5.18317826 28.85563379 -5.1875 23.125 C-5.19974609 22.27808594 -5.21199219 21.43117187 -5.22460938 20.55859375 C-5.24085431 13.48663165 -5.15740138 5.39182872 0 0 Z " fill="#F8AA45" transform="translate(53,195)"/>
<path d="M0 0 C0.99 0.33 1.98 0.66 3 1 C3 12.88 3 24.76 3 37 C1.68 36.67 0.36 36.34 -1 36 C-2.94631573 30.2773665 -3.33521168 25.14813794 -3.3125 19.125 C-3.32861328 18.27808594 -3.34472656 17.43117187 -3.36132812 16.55859375 C-3.36593997 10.53552094 -2.2344086 5.58475339 0 0 Z " fill="#F8AD46" transform="translate(40,200)"/>
<path d="M0 0 C1.65 0 3.3 0 5 0 C5 6.27 5 12.54 5 19 C8.96 19 12.92 19 17 19 C17 20.32 17 21.64 17 23 C11.39 23 5.78 23 0 23 C0 15.41 0 7.82 0 0 Z " fill="#F48533" transform="translate(67,409)"/>
<path d="M0 0 C0 5.50540676 -2.74072926 9.7487773 -6 14 C-6.24234375 14.74636719 -6.4846875 15.49273437 -6.734375 16.26171875 C-8.37973158 19.82157976 -10.82757048 22.10195486 -13.6875 24.6875 C-14.19216797 25.17283203 -14.69683594 25.65816406 -15.21679688 26.15820312 C-18.89470242 29.52922907 -22.04388463 30.90060074 -27 32 C-28.485 32.495 -28.485 32.495 -30 33 C-28.8550458 29.56513741 -27.85662683 29.1962728 -24.9375 27.34375 C-17.84689285 22.42607085 -12.32650417 16.55187095 -7.60546875 9.375 C-5.32503814 6.00151627 -2.70708812 3.03722082 0 0 Z " fill="#495CB8" transform="translate(180,267)"/>
<path d="M0 0 C1.98 0 3.96 0 6 0 C6 7.59 6 15.18 6 23 C4.02 23 2.04 23 0 23 C0 15.41 0 7.82 0 0 Z " fill="#F58331" transform="translate(50,409)"/>
<path d="M0 0 C0.75 1.6875 0.75 1.6875 1 4 C-0.625 6.3125 -0.625 6.3125 -3 9 C-3.75742146 10.12001684 -4.50701282 11.24535623 -5.25 12.375 C-8.18914981 16.52814647 -11.80416538 20.11207198 -16 23 C-16.99 23 -17.98 23 -19 23 C-21.01151741 23.63106429 -23.01363702 24.29373761 -25 25 C-22.17415676 22.08584916 -19.28683766 19.37251648 -16.1875 16.75 C-12.39925178 13.47735456 -9.11985677 9.9059491 -5.859375 6.11328125 C-3.98605164 3.98414693 -2.02487345 1.98455517 0 0 Z " fill="#4E5CBB" transform="translate(170,269)"/>
<path d="M0 0 C0.66 0.66 1.32 1.32 2 2 C1.79791614 3.8381032 1.58145065 5.67551392 1.30175781 7.50341797 C0.69793352 12.49913574 0.85723324 17.53746881 0.875 22.5625 C0.87113281 23.66013672 0.86726563 24.75777344 0.86328125 25.88867188 C0.86990068 31.37949262 1.09556071 36.58760737 2 42 C2.03703237 44.33303944 2.04760913 46.66715242 2 49 C-3.31630137 41.02554794 -2.31185698 29.42996376 -2.25 20.1875 C-2.25773437 19.01251953 -2.26546875 17.83753906 -2.2734375 16.62695312 C-2.26006449 10.70605377 -2.05163638 5.57686873 0 0 Z " fill="#F6953D" transform="translate(53,195)"/>
<path d="M0 0 C0.56976563 0.2475 1.13953125 0.495 1.7265625 0.75 C-0.31025054 5.33948661 -3.45138033 7.85794318 -7.2109375 11.0625 C-8.16129883 11.90651367 -8.16129883 11.90651367 -9.13085938 12.76757812 C-9.74380859 13.29416016 -10.35675781 13.82074219 -10.98828125 14.36328125 C-11.54636475 14.84579346 -12.10444824 15.32830566 -12.67944336 15.82543945 C-13.20546143 16.13054443 -13.73147949 16.43564941 -14.2734375 16.75 C-15.2634375 16.42 -16.2534375 16.09 -17.2734375 15.75 C-13.85581851 11.63133096 -10.32849392 7.63686951 -6.6484375 3.75 C-5.91367188 2.96625 -5.17890625 2.1825 -4.421875 1.375 C-2.2734375 -0.25 -2.2734375 -0.25 0 0 Z " fill="#F08828" transform="translate(153.2734375,14.25)"/>
<path d="M0 0 C3.36132958 0.56943279 4.82375895 1.50322189 7.015625 4.08984375 C7.54414062 4.70923828 8.07265625 5.32863281 8.6171875 5.96679688 C9.15601562 6.61712891 9.69484375 7.26746094 10.25 7.9375 C10.80429688 8.58396484 11.35859375 9.23042969 11.9296875 9.89648438 C16 14.72371459 16 14.72371459 16 17 C13.525 16.01 13.525 16.01 11 15 C11 14.34 11 13.68 11 13 C10.42765625 12.76539063 9.8553125 12.53078125 9.265625 12.2890625 C6.48315699 10.70593415 4.82929786 8.8008475 2.75 6.375 C2.04359375 5.55773437 1.3371875 4.74046875 0.609375 3.8984375 C0.07828125 3.27195312 -0.4528125 2.64546875 -1 2 C-0.67 1.34 -0.34 0.68 0 0 Z " fill="#EF8829" transform="translate(83,13)"/>
<path d="M0 0 C4.57228148 1.38764233 8.6095009 3.2327822 12.8125 5.5 C13.95332031 6.1084375 15.09414062 6.716875 16.26953125 7.34375 C19 9 19 9 20 11 C14.97525707 10.38169051 10.75279506 8.87023224 6.125 6.9375 C5.43664062 6.65583984 4.74828125 6.37417969 4.0390625 6.08398438 C2.35710091 5.39484734 0.67822303 4.69819202 -1 4 C-0.67 2.68 -0.34 1.36 0 0 Z " fill="#EC8127" transform="translate(73,28)"/>
<path d="M0 0 C1.32 0 2.64 0 4 0 C5.00736628 2.93502595 6.00460504 5.87339461 7 8.8125 C7.28617187 9.64587891 7.57234375 10.47925781 7.8671875 11.33789062 C8.13789062 12.14033203 8.40859375 12.94277344 8.6875 13.76953125 C8.93886719 14.50792236 9.19023438 15.24631348 9.44921875 16.00708008 C10 18 10 18 10 21 C7 20 7 20 6.0168457 18.37353516 C5.73929443 17.68565918 5.46174316 16.9977832 5.17578125 16.2890625 C4.86962891 15.53882813 4.56347656 14.78859375 4.24804688 14.015625 C3.93931641 13.22671875 3.63058594 12.4378125 3.3125 11.625 C2.99216797 10.84382812 2.67183594 10.06265625 2.34179688 9.2578125 C0 3.42578958 0 3.42578958 0 0 Z " fill="#F08128" transform="translate(98,3)"/>
<path d="M0 0 C0.99 0.33 1.98 0.66 3 1 C2.40440894 5.86872054 0.27522585 9.59328841 -2.0625 13.8125 C-2.43955078 14.50537109 -2.81660156 15.19824219 -3.20507812 15.91210938 C-4.13083852 17.61128985 -5.06462312 19.30609425 -6 21 C-6.99 20.67 -7.98 20.34 -9 20 C-7.69146915 16.8525009 -6.37751443 13.70729519 -5.0625 10.5625 C-4.50272461 9.21575195 -4.50272461 9.21575195 -3.93164062 7.84179688 C-3.57392578 6.98779297 -3.21621094 6.13378906 -2.84765625 5.25390625 C-2.51773682 4.46314697 -2.18781738 3.6723877 -1.84790039 2.85766602 C-1 1 -1 1 0 0 Z " fill="#F08328" transform="translate(136,3)"/>
<path d="M0 0 C0.66 0 1.32 0 2 0 C1.855625 0.83917969 1.71125 1.67835938 1.5625 2.54296875 C-0.16293911 13.72237629 -0.21214318 24.70582353 0 36 C-2.96099628 30.2754072 -3.21322209 25.70999435 -3.25 19.375 C-3.270625 18.51003906 -3.29125 17.64507812 -3.3125 16.75390625 C-3.34914991 10.64253445 -2.28597881 5.66322804 0 0 Z " fill="#F6973E" transform="translate(40,200)"/>
<path d="M0 0 C2.35424675 -0.02726927 4.70816962 -0.04696719 7.0625 -0.0625 C8.37347656 -0.07410156 9.68445313 -0.08570313 11.03515625 -0.09765625 C14.79604214 -0.00502359 18.31263595 0.25313263 22 1 C22.33 1.66 22.66 2.32 23 3 C15.41 3 7.82 3 0 3 C0 2.01 0 1.02 0 0 Z " fill="#EC832A" transform="translate(68,47)"/>
<path d="M0 0 C0.99 0 1.98 0 3 0 C3.09377123 7.41834582 3.17402193 14.66236293 2 22 C1.34 22 0.68 22 0 22 C0 14.74 0 7.48 0 0 Z " fill="#F08829" transform="translate(117,0)"/>
<path d="M0 0 C0.33 0.99 0.66 1.98 1 3 C-1.54591598 5.66222914 -4.11433046 8.30162485 -6.6875 10.9375 C-7.7693457 12.06961914 -7.7693457 12.06961914 -8.87304688 13.22460938 C-9.57880859 13.94326172 -10.28457031 14.66191406 -11.01171875 15.40234375 C-11.65584717 16.06741943 -12.29997559 16.73249512 -12.96362305 17.41772461 C-15.31463155 19.24447033 -17.07441178 19.64235406 -20 20 C-17.15421516 17.06528438 -14.24308235 14.33241032 -11.125 11.6875 C-7.00064821 8.12769827 -3.47759563 4.18398224 0 0 Z " fill="#4155AD" transform="translate(165,274)"/>
<path d="M0 0 C-3.23961631 3.88753957 -6.13568307 4.85025236 -11 6 C-11.99 6.33 -12.98 6.66 -14 7 C-13 4 -13 4 -10.8203125 2.578125 C-9.93085938 2.13984375 -9.04140625 1.7015625 -8.125 1.25 C-7.24070313 0.80140625 -6.35640625 0.3528125 -5.4453125 -0.109375 C-3 -1 -3 -1 0 0 Z " fill="#4C4EAE" transform="translate(164,293)"/>
<path d="M0 0 C0.66 0.66 1.32 1.32 2 2 C1.7578125 4.06640625 1.7578125 4.06640625 1.125 6.5625 C0.00080651 11.51327519 -0.1634124 15.93421565 0 21 C-2.21183993 18.78816007 -2.65687993 17.34661756 -3.046875 14.28515625 C-2.94654144 9.39389521 -1.35742628 4.67046669 0 0 Z " fill="#00BFF2" transform="translate(142,122)"/>
<path d="M0 0 C0.66 0.33 1.32 0.66 2 1 C-1.17320782 4.53586014 -3.16743695 6.58578031 -8 7 C-5.42215154 4.35247996 -3.08351902 2.05567935 0 0 Z " fill="#474CA8" transform="translate(153,287)"/>
<path d="M0 0 C0.6875 1.8125 0.6875 1.8125 1 4 C-0.3125 5.75 -0.3125 5.75 -2 7 C-2.66 7 -3.32 7 -4 7 C-3.39816251 4.97954558 -2.72693904 2.97888961 -2 1 C-1.34 0.67 -0.68 0.34 0 0 Z " fill="#4162B8" transform="translate(170,269)"/>
<path d="M0 0 C0.33 0.66 0.66 1.32 1 2 C-0.65 4.31 -2.3 6.62 -4 9 C-4.66 8.67 -5.32 8.34 -6 8 C-4.02 5.36 -2.04 2.72 0 0 Z " fill="#4D65C2" transform="translate(166,276)"/>
</svg>
